<mxfile host="www.draw.io" modified="2019-11-19T02:42:11.029Z" agent="Mozilla/5.0 (Windows NT 10.0; Win64; x64) AppleWebKit/537.36 (KHTML, like Gecko) Chrome/78.0.3904.97 Safari/537.36" etag="oMSlGty7dmpmtuFiiAhS" version="12.2.6" type="github" pages="1">
  <diagram name="Page-1" id="74e2e168-ea6b-b213-b513-2b3c1d86103e">
    <mxGraphModel dx="1422" dy="1563" grid="1" gridSize="10" guides="1" tooltips="1" connect="1" arrows="1" fold="1" page="1" pageScale="1" pageWidth="1100" pageHeight="850" background="#ffffff" math="0" shadow="0">
      <root>
        <mxCell id="0"/>
        <mxCell id="1" parent="0"/>
        <mxCell id="oRWcCrFZAKXOB-EkzIuv-2" value="" style="rounded=0;whiteSpace=wrap;html=1;" vertex="1" parent="1">
          <mxGeometry x="160" y="-800" width="220" height="500" as="geometry"/>
        </mxCell>
        <mxCell id="oRWcCrFZAKXOB-EkzIuv-6" style="edgeStyle=orthogonalEdgeStyle;rounded=0;orthogonalLoop=1;jettySize=auto;html=1;" edge="1" parent="1" source="oRWcCrFZAKXOB-EkzIuv-3" target="oRWcCrFZAKXOB-EkzIuv-4">
          <mxGeometry relative="1" as="geometry"/>
        </mxCell>
        <mxCell id="oRWcCrFZAKXOB-EkzIuv-3" value="" style="rounded=0;whiteSpace=wrap;html=1;" vertex="1" parent="1">
          <mxGeometry x="210" y="-760" width="120" height="60" as="geometry"/>
        </mxCell>
        <mxCell id="oRWcCrFZAKXOB-EkzIuv-4" value="" style="rounded=0;whiteSpace=wrap;html=1;" vertex="1" parent="1">
          <mxGeometry x="210" y="-650" width="120" height="60" as="geometry"/>
        </mxCell>
      </root>
    </mxGraphModel>
  </diagram>
</mxfile>
